<svg xmlns="http://www.w3.org/2000/svg" width="227.627" height="172.881" viewBox="0 0 227.627 172.881">
  <g id="uyuni3" transform="translate(-5.25 -10.92)">
    <path id="Path_130" data-name="Path 130" d="M48.321,10.92H28.45V34.055h.057Z" transform="translate(109.654 0)" fill="#fff"/>
    <path id="Path_131" data-name="Path 131" d="M28.507,14.96H28.45v.057Z" transform="translate(109.654 19.095)" fill="#fff"/>
    <path id="Path_132" data-name="Path 132" d="M48.732,10.92h-.458L28.46,34.055,48.674,45.107l.057-.057Z" transform="translate(109.701 0)" fill="#fff"/>
    <path id="Path_133" data-name="Path 133" d="M32.047,16.88l-.057.057h.057Z" transform="translate(126.386 28.17)" fill="#fff"/>
    <path id="Path_134" data-name="Path 134" d="M28.37,20Z" transform="translate(109.276 42.916)" fill="#fff"/>
    <path id="Path_135" data-name="Path 135" d="M28.791,15h0V37.276a44.836,44.836,0,0,1-.4,6.185h0L49.062,25.823Z" transform="translate(109.371 19.284)" fill="#fff"/>
    <path id="Path_136" data-name="Path 136" d="M35.223,20a17.2,17.2,0,0,1-.458,2.92,25.654,25.654,0,0,1-3.207,8.532,18.324,18.324,0,0,1-4.638,4.982l1.374.916a17.179,17.179,0,0,0,8.819,2.119,22.1,22.1,0,0,0,4.008-.4L35.4,20Z" transform="translate(102.423 42.916)" fill="#fff"/>
    <path id="Path_137" data-name="Path 137" d="M49.015,17.032,28.4,34.841,34.126,53.91a14.545,14.545,0,0,0,4.867-1.832,17.179,17.179,0,0,0,5.726-5.726,25.655,25.655,0,0,0,3.207-8.361,47.929,47.929,0,0,0,1.088-9.678V17.032Z" transform="translate(109.418 28.075)" fill="#fff"/>
    <path id="Path_138" data-name="Path 138" d="M21.36,70.917,38.539,41.769,18.21,11.82V51.9a64.48,64.48,0,0,0,2.176,16.778Z" transform="translate(61.255 4.254)" fill="#fff"/>
    <path id="Path_139" data-name="Path 139" d="M38.165,44.193a64.48,64.48,0,0,1-2.176-16.778V17.05h0L18.81,46.2a32.468,32.468,0,0,0,1.317,3.55L42,53.012a38.939,38.939,0,0,1-3.837-8.819Z" transform="translate(64.091 28.973)" fill="#fff"/>
    <path id="Path_140" data-name="Path 140" d="M44.139,31.292a32.812,32.812,0,0,1-3.321-5.268L19,22.76a36.019,36.019,0,0,0,4.925,8.532A33.328,33.328,0,0,0,36.179,41.314a41.517,41.517,0,0,0,18.153,3.608,50.564,50.564,0,0,0,10.079-.973,36.592,36.592,0,0,1-8.017-2.634A34.015,34.015,0,0,1,44.139,31.292Z" transform="translate(64.989 55.961)" fill="#fff"/>
    <path id="Path_141" data-name="Path 141" d="M38.589,10.92H18.26v5.154L38.532,46.023h.057Z" transform="translate(61.492 0)" fill="#fff"/>
    <path id="Path_142" data-name="Path 142" d="M21.857,17.05h0Z" transform="translate(78.223 28.973)" fill="#fff"/>
    <path id="Path_143" data-name="Path 143" d="M26.267,83.9a18.038,18.038,0,0,0,7.215-1.374,15.118,15.118,0,0,0,5.326-3.894A16.549,16.549,0,0,0,42.186,72.9a23.306,23.306,0,0,0,1.145-7.273V31.27H47.34V65.629a25.024,25.024,0,0,1-1.432,8.59,21.131,21.131,0,0,1-4.18,7.044,19.7,19.7,0,0,1-6.643,4.7,24.109,24.109,0,0,1-17.58,0,19.7,19.7,0,0,1-6.643-4.7,20.214,20.214,0,0,1-4.18-6.929,25.025,25.025,0,0,1-1.432-8.59V31.385H9.546V65.743a21.3,21.3,0,0,0,1.2,7.273,17.179,17.179,0,0,0,3.321,5.726A15.29,15.29,0,0,0,19.4,82.636,17.924,17.924,0,0,0,26.267,83.9Z" transform="translate(0 96.183)" fill="#fff"/>
    <path id="Path_144" data-name="Path 144" d="M38.7,64V86.909H34.688V64L14.13,31.362h3.493a1.26,1.26,0,0,1,.859,0,4.41,4.41,0,0,1,.687.744l15.862,25.54A18.209,18.209,0,0,1,36,59.365a10.768,10.768,0,0,1,.687,1.718,4.488,4.488,0,0,1,.744-1.718,17.182,17.182,0,0,1,.916-1.718l15.862-25.54a2.291,2.291,0,0,1,.573-.687,1.718,1.718,0,0,1,.916,0H59.2Z" transform="translate(41.972 96.262)" fill="#fff"/>
    <path id="Path_145" data-name="Path 145" d="M44.6,83.9a17.924,17.924,0,0,0,7.158-1.374,15.29,15.29,0,0,0,5.383-3.894A16.435,16.435,0,0,0,60.466,72.9a21.76,21.76,0,0,0,1.145-7.273V31.27h4.008V65.629a25.025,25.025,0,0,1-1.432,8.59,20.214,20.214,0,0,1-4.18,7.044,19.184,19.184,0,0,1-6.643,4.7,23.936,23.936,0,0,1-17.523,0,18.668,18.668,0,0,1-6.643-4.7,19.355,19.355,0,0,1-4.18-6.929,25.083,25.083,0,0,1-1.489-8.59V31.385H27.6V65.743a22.905,22.905,0,0,0,1.145,7.273,18.267,18.267,0,0,0,3.321,5.726,16.034,16.034,0,0,0,5.383,3.894A17.523,17.523,0,0,0,44.6,83.9Z" transform="translate(86.4 96.183)" fill="#fff"/>
    <path id="Path_146" data-name="Path 146" d="M36.638,31.375a2.119,2.119,0,0,1,.63.63L73.287,80.164a16.036,16.036,0,0,1,0-2.291V31.26h3.55V87.035h-1.89a1.718,1.718,0,0,1-1.489-.744l-36.306-48.5a15.348,15.348,0,0,1,0,2.233V87.035H33.66V31.489h1.947Z" transform="translate(134.279 96.136)" fill="#fff"/>
    <path id="Path_147" data-name="Path 147" d="M48.308,86.846H44.3V31.3h4.008Z" transform="translate(184.568 96.325)" fill="#fff"/>
  </g>
</svg>
